HIERARCHY
ROOT Joint0
{
  OFFSET 0.0000 0.0000 1.0000
  CHANNELS 6 Xposition Yposition Zposition Zrotation Xrotation Yrotation
  JOINT Joint1
  {
    OFFSET 0.0811 -0.0899 -0.0114
    CHANNELS 3 Zrotation Xrotation Yrotation
    JOINT Joint4
    {
      OFFSET 0.0297 -0.3677 -0.0039
      CHANNELS 3 Zrotation Xrotation Yrotation
      JOINT Joint7
      {
        OFFSET -0.0120 -0.3841 -0.0490
        CHANNELS 3 Zrotation Xrotation Yrotation
        JOINT Joint10
        {
          OFFSET 0.0247 -0.0555 0.1226
          CHANNELS 3 Zrotation Xrotation Yrotation
          End Site
          {
            OFFSET 0.0247 -0.0555 0.1226
          }
        }
      }
    }
  }
  JOINT Joint2
  {
    OFFSET -0.0773 -0.0878 -0.0084
    CHANNELS 3 Zrotation Xrotation Yrotation
    JOINT Joint5
    {
      OFFSET -0.0344 -0.3716 -0.0062
      CHANNELS 3 Zrotation Xrotation Yrotation
      JOINT Joint8
      {
        OFFSET 0.0139 -0.3835 -0.0484
        CHANNELS 3 Zrotation Xrotation Yrotation
        JOINT Joint11
        {
          OFFSET -0.0293 -0.0469 0.1263
          CHANNELS 3 Zrotation Xrotation Yrotation
          End Site
          {
            OFFSET -0.0293 -0.0469 0.1263
          }
        }
      }
    }
  }
  JOINT Joint3
  {
    OFFSET -0.0027 0.1037 -0.0232
    CHANNELS 3 Zrotation Xrotation Yrotation
    JOINT Joint6
    {
      OFFSET 0.0030 0.1296 -0.0027
      CHANNELS 3 Zrotation Xrotation Yrotation
      JOINT Joint9
      {
        OFFSET 0.0015 0.0533 0.0332
        CHANNELS 3 Zrotation Xrotation Yrotation
        JOINT Joint12
        {
          OFFSET -0.0004 0.2283 -0.0600
          CHANNELS 3 Zrotation Xrotation Yrotation
          JOINT Joint15
          {
            OFFSET 0.0048 0.0641 0.0558
            CHANNELS 3 Zrotation Xrotation Yrotation
            End Site
            {
              OFFSET 0.0048 0.0641 0.0558
            }
          }
        }
        JOINT Joint13
        {
          OFFSET 0.0787 0.1275 -0.0430
          CHANNELS 3 Zrotation Xrotation Yrotation
          JOINT Joint16
          {
            OFFSET 0.0914 0.0355 -0.0086
            CHANNELS 3 Zrotation Xrotation Yrotation
            JOINT Joint18
            {
              OFFSET 0.2512 -0.0141 -0.0294
              CHANNELS 3 Zrotation Xrotation Yrotation
              JOINT Joint20
              {
                OFFSET 0.2431 0.0092 0.0027
                CHANNELS 3 Zrotation Xrotation Yrotation
                JOINT Joint22
                {
                  OFFSET 0.1053 -0.0108 0.0234
                  CHANNELS 3 Zrotation Xrotation Yrotation
                  JOINT Joint23
                  {
                    OFFSET 0.0332 0.0042 0.0030
                    CHANNELS 3 Zrotation Xrotation Yrotation
                    JOINT Joint24
                    {
                      OFFSET 0.0234 -0.0009 0.0005
                      CHANNELS 3 Zrotation Xrotation Yrotation
                      End Site
                      {
                        OFFSET 0.0234 -0.0009 0.0005
                      }
                    }
                  }
                }
                JOINT Joint25
                {
                  OFFSET 0.1126 -0.0078 -0.0002
                  CHANNELS 3 Zrotation Xrotation Yrotation
                  JOINT Joint26
                  {
                    OFFSET 0.0317 0.0021 -0.0047
                    CHANNELS 3 Zrotation Xrotation Yrotation
                    JOINT Joint27
                    {
                      OFFSET 0.0246 -0.0008 -0.0039
                      CHANNELS 3 Zrotation Xrotation Yrotation
                      End Site
                      {
                        OFFSET 0.0246 -0.0008 -0.0039
                      }
                    }
                  }
                }
                JOINT Joint28
                {
                  OFFSET 0.0860 -0.0168 -0.0403
                  CHANNELS 3 Zrotation Xrotation Yrotation
                  JOINT Joint29
                  {
                    OFFSET 0.0158 -0.0006 -0.0114
                    CHANNELS 3 Zrotation Xrotation Yrotation
                    JOINT Joint30
                    {
                      OFFSET 0.0161 -0.0011 -0.0109
                      CHANNELS 3 Zrotation Xrotation Yrotation
                      End Site
                      {
                        OFFSET 0.0161 -0.0011 -0.0109
                      }
                    }
                  }
                }
                JOINT Joint31
                {
                  OFFSET 0.0999 -0.0111 -0.0238
                  CHANNELS 3 Zrotation Xrotation Yrotation
                  JOINT Joint32
                  {
                    OFFSET 0.0286 0.0023 -0.0053
                    CHANNELS 3 Zrotation Xrotation Yrotation
                    JOINT Joint33
                    {
                      OFFSET 0.0234 -0.0009 -0.0074
                      CHANNELS 3 Zrotation Xrotation Yrotation
                      End Site
                      {
                        OFFSET 0.0234 -0.0009 -0.0074
                      }
                    }
                  }
                }
                JOINT Joint34
                {
                  OFFSET 0.0426 -0.0219 0.0277
                  CHANNELS 3 Zrotation Xrotation Yrotation
                  JOINT Joint35
                  {
                    OFFSET 0.0185 0.0008 0.0246
                    CHANNELS 3 Zrotation Xrotation Yrotation
                    JOINT Joint36
                    {
                      OFFSET 0.0221 -0.0048 0.0152
                      CHANNELS 3 Zrotation Xrotation Yrotation
                      End Site
                      {
                        OFFSET 0.0221 -0.0048 0.0152
                      }
                    }
                  }
                }
              }
            }
          }
        }
        JOINT Joint14
        {
          OFFSET -0.0815 0.1251 -0.0492
          CHANNELS 3 Zrotation Xrotation Yrotation
          JOINT Joint17
          {
            OFFSET -0.0975 0.0385 -0.0099
            CHANNELS 3 Zrotation Xrotation Yrotation
            JOINT Joint19
            {
              OFFSET -0.2546 -0.0159 -0.0229
              CHANNELS 3 Zrotation Xrotation Yrotation
              JOINT Joint21
              {
                OFFSET -0.2519 0.0079 0.0007
                CHANNELS 3 Zrotation Xrotation Yrotation
                JOINT Joint37
                {
                  OFFSET -0.1043 -0.0103 0.0246
                  CHANNELS 3 Zrotation Xrotation Yrotation
                  JOINT Joint38
                  {
                    OFFSET -0.0341 0.0034 0.0025
                    CHANNELS 3 Zrotation Xrotation Yrotation
                    JOINT Joint39
                    {
                      OFFSET -0.0236 -0.0015 -0.0003
                      CHANNELS 3 Zrotation Xrotation Yrotation
                      End Site
                      {
                        OFFSET -0.0236 -0.0015 -0.0003
                      }
                    }
                  }
                }
                JOINT Joint40
                {
                  OFFSET -0.1123 -0.0074 -0.0003
                  CHANNELS 3 Zrotation Xrotation Yrotation
                  JOINT Joint41
                  {
                    OFFSET -0.0322 0.0016 -0.0048
                    CHANNELS 3 Zrotation Xrotation Yrotation
                    JOINT Joint42
                    {
                      OFFSET -0.0245 -0.0012 -0.0045
                      CHANNELS 3 Zrotation Xrotation Yrotation
                      End Site
                      {
                        OFFSET -0.0245 -0.0012 -0.0045
                      }
                    }
                  }
                }
                JOINT Joint43
                {
                  OFFSET -0.0863 -0.0161 -0.0419
                  CHANNELS 3 Zrotation Xrotation Yrotation
                  JOINT Joint44
                  {
                    OFFSET -0.0162 -0.0001 -0.0120
                    CHANNELS 3 Zrotation Xrotation Yrotation
                    JOINT Joint45
                    {
                      OFFSET -0.0165 -0.0007 -0.0110
                      CHANNELS 3 Zrotation Xrotation Yrotation
                      End Site
                      {
                        OFFSET -0.0165 -0.0007 -0.0110
                      }
                    }
                  }
                }
                JOINT Joint46
                {
                  OFFSET -0.0999 -0.0107 -0.0248
                  CHANNELS 3 Zrotation Xrotation Yrotation
                  JOINT Joint47
                  {
                    OFFSET -0.0290 0.0016 -0.0050
                    CHANNELS 3 Zrotation Xrotation Yrotation
                    JOINT Joint48
                    {
                      OFFSET -0.0236 -0.0012 -0.0076
                      CHANNELS 3 Zrotation Xrotation Yrotation
                      End Site
                      {
                        OFFSET -0.0236 -0.0012 -0.0076
                      }
                    }
                  }
                }
                JOINT Joint49
                {
                  OFFSET -0.0397 -0.0214 0.0306
                  CHANNELS 3 Zrotation Xrotation Yrotation
                  JOINT Joint50
                  {
                    OFFSET -0.0191 0.0007 0.0247
                    CHANNELS 3 Zrotation Xrotation Yrotation
                    JOINT Joint51
                    {
                      OFFSET -0.0231 -0.0056 0.0141
                      CHANNELS 3 Zrotation Xrotation Yrotation
                      End Site
                      {
                        OFFSET -0.0231 -0.0056 0.0141
                      }
                    }
                  }
                }
              }
            }
          }
        }
      }
    }
  }
}
MOTION
Frames: 5
Frame Time: 0.0333
0.0000 0.0000 0.0000 -10.8786 74.6561 -13.8591 15.2207 -35.8997 -1.0496 -7.2895 25.4316 0.7746 -15.6461 30.6046 8.3356 0.0000 0.0000 0.0000 -12.6449 31.2815 -4.6451 -11.5967 35.2822 27.0691 -0.3632 -11.7768 6.5497 0.0000 0.0000 0.0000 -3.1887 1.7670 12.3591 2.2026 0.5798 -0.3597 -0.9456 2.4983 4.6957 -0.1928 28.4611 8.0239 1.5128 13.0127 5.4129 -24.4137 -1.2935 24.9896 -50.2066 -7.7727 20.8583 10.1363 2.5722 -20.2489 -2.6500 -4.5166 -0.8875 -24.0738 5.7061 3.7140 -43.3124 7.0195 -1.1858 -11.0629 -4.9918 -5.7123 -30.3189 -7.2093 1.0370 -40.4542 -8.6380 0.1210 -19.3843 -0.1920 -5.3744 -40.1428 -20.5934 -19.4386 -29.8046 -10.8081 -6.7641 -5.4446 -21.0010 -4.5092 -36.8726 -6.0602 -7.1223 -37.6129 -15.1557 -8.6470 -22.1659 -8.4174 -9.3293 -16.0939 46.7949 23.9080 3.7329 -28.5753 2.5054 -18.3193 29.8224 7.6334 28.6938 3.9171 -10.9135 50.1510 3.0428 3.3664 -7.7093 2.3411 35.4771 0.0105 -3.7850 3.7467 24.0738 5.7061 -3.7140 43.3124 7.0195 1.1858 11.0629 -4.9918 5.7123 30.3189 -7.2093 -1.0370 40.4542 -8.6380 -0.1210 19.3843 -0.1920 5.3744 40.1428 -20.5934 19.4386 29.8046 -10.8081 6.7641 5.4446 -21.0010 4.5092 36.8726 -6.0602 7.1223 37.6129 -15.1557 8.6470 22.1659 -8.4174 9.3293 16.0939 46.7949 -23.9080 -3.7329 -28.5753 -2.5054 18.3193 29.8224 -7.6334
0.0000 0.0000 0.0000 -15.3094 77.7756 -10.0233 15.2367 -35.9251 -1.4335 -7.3606 28.7555 -0.2170 -15.4625 29.4202 8.2014 0.0000 0.0000 0.0000 -13.1786 31.3862 -4.2785 -10.8430 33.4396 26.9934 0.8760 -12.8221 7.9003 0.0000 0.0000 0.0000 -3.0283 1.9638 12.5053 2.3112 -0.4878 -0.0921 -0.7247 2.3304 5.1082 0.6431 25.6806 8.1306 1.6667 13.0208 4.4673 -24.3829 -1.6288 24.6223 -51.0616 -7.3368 20.6099 9.9722 2.3838 -20.6810 -2.0670 -4.4978 -1.1701 -24.0738 5.7061 3.7140 -43.3124 7.0195 -1.1858 -11.0629 -4.9918 -5.7123 -30.3189 -7.2093 1.0370 -40.4542 -8.6380 0.1210 -19.3843 -0.1920 -5.3744 -40.1428 -20.5934 -19.4386 -29.8046 -10.8081 -6.7641 -5.4446 -21.0010 -4.5092 -36.8726 -6.0602 -7.1223 -37.6129 -15.1557 -8.6470 -22.1659 -8.4174 -9.3293 -16.0939 46.7949 23.9080 3.7329 -28.5753 2.5054 -18.3193 29.8224 7.6334 29.0384 3.9831 -10.2273 50.5995 3.2219 3.3052 -7.7213 2.2581 34.9794 -0.1741 -3.7339 3.8854 24.0738 5.7061 -3.7140 43.3124 7.0195 1.1858 11.0629 -4.9918 5.7123 30.3189 -7.2093 -1.0370 40.4542 -8.6380 -0.1210 19.3843 -0.1920 5.3744 40.1428 -20.5934 19.4386 29.8046 -10.8081 6.7641 5.4446 -21.0010 4.5092 36.8726 -6.0602 7.1223 37.6129 -15.1557 8.6470 22.1659 -8.4174 9.3293 16.0939 46.7949 -23.9080 -3.7329 -28.5753 -2.5054 18.3193 29.8224 -7.6334
0.0000 0.0000 0.0000 -18.6863 81.3253 -7.2682 15.5598 -37.5699 -0.5364 -8.4718 33.7055 2.4620 -7.2064 8.5540 4.7272 0.0000 0.0000 0.0000 -14.1364 31.0609 -3.8836 -11.0284 31.1135 28.3360 4.2143 -15.1047 9.2573 0.0000 0.0000 0.0000 -3.9254 3.2775 13.3473 2.1603 -2.7268 0.3573 -0.3627 2.7308 5.6005 1.9598 21.2834 7.5207 1.4683 13.4154 3.6969 -24.2476 -1.6481 23.6179 -52.3084 -7.2781 18.9439 9.9295 2.6975 -21.3109 -1.1373 -4.9586 -1.9276 -24.0738 5.7061 3.7140 -43.3124 7.0195 -1.1858 -11.0629 -4.9918 -5.7123 -30.3189 -7.2093 1.0370 -40.4542 -8.6380 0.1210 -19.3843 -0.1920 -5.3744 -40.1428 -20.5934 -19.4386 -29.8046 -10.8081 -6.7641 -5.4446 -21.0010 -4.5092 -36.8726 -6.0602 -7.1223 -37.6129 -15.1557 -8.6470 -22.1659 -8.4174 -9.3293 -16.0939 46.7949 23.9080 3.7329 -28.5753 2.5054 -18.3193 29.8224 7.6334 29.4603 3.9298 -9.4073 51.2571 3.9874 3.4659 -7.8517 0.8167 34.1313 0.9815 -3.3343 3.9712 24.0738 5.7061 -3.7140 43.3124 7.0195 1.1858 11.0629 -4.9918 5.7123 30.3189 -7.2093 -1.0370 40.4542 -8.6380 -0.1210 19.3843 -0.1920 5.3744 40.1428 -20.5934 19.4386 29.8046 -10.8081 6.7641 5.4446 -21.0010 4.5092 36.8726 -6.0602 7.1223 37.6129 -15.1557 8.6470 22.1659 -8.4174 9.3293 16.0939 46.7949 -23.9080 -3.7329 -28.5753 -2.5054 18.3193 29.8224 -7.6334
0.0000 0.0000 0.0000 -20.0636 83.8594 -4.8767 15.9646 -42.6176 -1.2983 -11.9060 39.9050 4.6992 -3.7583 0.3598 4.2454 0.0000 0.0000 0.0000 -14.3252 31.3732 -3.0705 -10.6997 29.5708 28.7789 6.0451 -17.1038 10.1134 0.0000 0.0000 0.0000 -5.7140 7.7927 14.8812 1.6346 -4.0302 0.2469 -0.3245 3.0702 5.1796 3.2408 13.1582 7.8970 1.5203 15.9558 1.5946 -24.5578 -2.8715 20.3705 -54.6005 -5.2951 15.0554 10.2703 1.5467 -20.6782 1.3382 -6.4557 -2.5001 -24.0738 5.7061 3.7140 -43.3124 7.0195 -1.1858 -11.0629 -4.9918 -5.7123 -30.3189 -7.2093 1.0370 -40.4542 -8.6380 0.1210 -19.3843 -0.1920 -5.3744 -40.1428 -20.5934 -19.4386 -29.8046 -10.8081 -6.7641 -5.4446 -21.0010 -4.5092 -36.8726 -6.0602 -7.1223 -37.6129 -15.1557 -8.6470 -22.1659 -8.4174 -9.3293 -16.0939 46.7949 23.9080 3.7329 -28.5753 2.5054 -18.3193 29.8224 7.6334 30.1645 2.1096 -6.8760 51.7374 5.6764 4.2470 -7.8544 -1.2603 31.9968 0.0465 -4.2330 3.8984 24.0738 5.7061 -3.7140 43.3124 7.0195 1.1858 11.0629 -4.9918 5.7123 30.3189 -7.2093 -1.0370 40.4542 -8.6380 -0.1210 19.3843 -0.1920 5.3744 40.1428 -20.5934 19.4386 29.8046 -10.8081 6.7641 5.4446 -21.0010 4.5092 36.8726 -6.0602 7.1223 37.6129 -15.1557 8.6470 22.1659 -8.4174 9.3293 16.0939 46.7949 -23.9080 -3.7329 -28.5753 -2.5054 18.3193 29.8224 -7.6334
0.0000 0.0000 0.0000 -26.2025 85.9760 1.6525 16.6163 -46.8726 -1.5714 -14.0873 44.4322 7.1552 -3.2480 -2.8482 3.0521 0.0000 0.0000 0.0000 -14.3858 30.3055 -2.6905 -11.0811 29.3728 29.2957 7.0843 -18.1900 11.6841 0.0000 0.0000 0.0000 -6.3931 12.3086 16.1107 0.7219 -2.6001 0.5563 -0.3304 2.1300 5.3606 2.7318 7.6962 7.8358 1.5172 15.1463 0.2476 -24.5392 -3.5144 15.5136 -58.1649 -3.3330 10.8295 11.7114 0.7426 -21.0115 2.2299 -7.8611 -2.2896 -24.0738 5.7061 3.7140 -43.3124 7.0195 -1.1858 -11.0629 -4.9918 -5.7123 -30.3189 -7.2093 1.0370 -40.4542 -8.6380 0.1210 -19.3843 -0.1920 -5.3744 -40.1428 -20.5934 -19.4386 -29.8046 -10.8081 -6.7641 -5.4446 -21.0010 -4.5092 -36.8726 -6.0602 -7.1223 -37.6129 -15.1557 -8.6470 -22.1659 -8.4174 -9.3293 -16.0939 46.7949 23.9080 3.7329 -28.5753 2.5054 -18.3193 29.8224 7.6334 29.7739 2.6612 -2.4724 52.3378 5.9162 5.5036 -8.0288 -3.4089 30.7970 -0.1405 -5.9871 3.2764 24.0738 5.7061 -3.7140 43.3124 7.0195 1.1858 11.0629 -4.9918 5.7123 30.3189 -7.2093 -1.0370 40.4542 -8.6380 -0.1210 19.3843 -0.1920 5.3744 40.1428 -20.5934 19.4386 29.8046 -10.8081 6.7641 5.4446 -21.0010 4.5092 36.8726 -6.0602 7.1223 37.6129 -15.1557 8.6470 22.1659 -8.4174 9.3293 16.0939 46.7949 -23.9080 -3.7329 -28.5753 -2.5054 18.3193 29.8224 -7.6334
